<?xml version="1.0" encoding="UTF-8"?>
<svg width="16px" height="16px" viewBox="0 0 16 16" version="1.1" xmlns="http://www.w3.org/2000/svg" xmlns:xlink="http://www.w3.org/1999/xlink" fill="currentColor">
    <g id="页面-1" stroke="none" stroke-width="1" fill-rule="evenodd">
        <g id="3.2-数据资产管理-资产标签" transform="translate(-1304.000000, -158.000000)">
            <g id="通用/按钮/带icon的按钮/主按钮32px-蓝" transform="translate(1288.000000, 150.000000)">
                <g id="1.通用/2.Icon图标/Line/Save" transform="translate(16.000000, 8.000000)">
                    <path d="M8.47368421,2.5 C8.55789474,2.5 8.6,2.54074074 8.6,2.62222222 L8.6,7.4 L13.372093,7.4 C13.4573643,7.4 13.5,7.44210526 13.5,7.52631579 L13.5,8.47368421 C13.5,8.55789474 13.4573643,8.6 13.372093,8.6 L8.6,8.6 L8.6,13.3777778 C8.6,13.4592593 8.55789474,13.5 8.47368421,13.5 L7.52631579,13.5 C7.44210526,13.5 7.4,13.4592593 7.4,13.3777778 L7.4,8.6 L2.62790698,8.6 C2.54263566,8.6 2.5,8.55789474 2.5,8.47368421 L2.5,7.52631579 C2.5,7.44210526 2.54263566,7.4 2.62790698,7.4 L7.4,7.4 L7.4,2.62222222 C7.4,2.54074074 7.44210526,2.5 7.52631579,2.5 L8.47368421,2.5 Z" id="形状结合"></path>
                </g>
            </g>
        </g>
    </g>
</svg>