<?xml version="1.0" encoding="UTF-8"?>
<svg width="16px" height="16px" viewBox="0 0 16 16" version="1.1" xmlns="http://www.w3.org/2000/svg" xmlns:xlink="http://www.w3.org/1999/xlink">
    <g id="页面-1" stroke="none" stroke-width="1" fill="none" fill-rule="evenodd">
        <g id="2.1数据集管理-编辑物料库" transform="translate(-288.000000, -470.000000)">
            <g id="编组-2" transform="translate(272.000000, 432.000000)">
                <g id="1.通用/2.Icon图标/Line/Save" transform="translate(0.000000, 30.000000)">
                    <g transform="translate(16.000000, 8.000000)">
                        <path d="M3.46875,8.625 C3.55208333,8.625 3.59375,8.64351852 3.59375,8.68055556 L3.59325,12.4057875 L12.40625,12.4057875 L12.40625,8.68055556 C12.40625,8.64351852 12.4479167,8.625 12.53125,8.625 L13.46875,8.625 C13.5520833,8.625 13.59375,8.64351852 13.59375,8.68055556 L13.59375,13.5694444 C13.59375,13.6064815 13.5520833,13.625 13.46875,13.625 L12.53125,13.625 C12.46875,13.625 12.4296875,13.6145833 12.4140625,13.59375 L3.59375,13.5694444 C3.59375,13.6064815 3.55208333,13.625 3.46875,13.625 L2.53125,13.625 C2.44791667,13.625 2.40625,13.6064815 2.40625,13.5694444 L2.40625,8.68055556 C2.40625,8.64351852 2.44791667,8.625 2.53125,8.625 L3.46875,8.625 Z M7.81630003,2.4568748 C7.84248917,2.43068566 7.88504652,2.44705388 7.94397209,2.50597944 L7.94397209,2.50597944 L7.92297072,2.4842476 C7.97000566,2.44338117 8.00483208,2.43425691 8.02744997,2.4568748 L8.02744997,2.4568748 L11.4844165,5.91384129 C11.5106056,5.94003043 11.4942374,5.98258778 11.4353118,6.04151335 L11.4353118,6.04151335 L10.7723992,6.70442596 C10.7134736,6.76335152 10.6709163,6.77971973 10.6447272,6.75353059 L10.6447272,6.75353059 L8.59325,4.70078751 L8.59375,10.2972222 C8.59375,10.3490741 8.55208333,10.375 8.46875,10.375 L7.53125,10.375 C7.44791667,10.375 7.40625,10.3490741 7.40625,10.2972222 L7.40625,4.54578751 L5.19902285,6.75353059 C5.17938099,6.77317245 5.15053202,6.76887579 5.11247592,6.74064063 L5.07135079,6.70442596 L4.40843818,6.04151335 C4.34951262,5.98258778 4.3331444,5.94003043 4.35933354,5.91384129 L4.35933354,5.91384129 Z" id="形状" fill="#fff"></path>
                    </g>
                </g>
            </g>
        </g>
    </g>
</svg>
